<svg xmlns="http://www.w3.org/2000/svg" width="64" height="64" viewBox="0 0 64 64">
  <g fill="none" fill-rule="evenodd">
    <rect width="56" height="56" x="4" y="4" fill="#005F10" fill-rule="nonzero" rx="4"/>
    <path fill="#F7F7F7" fill-rule="nonzero" d="M24,47.2 C30.81827732,47.2 38.90775732,35.46666668 48.26844,12 C41.051632,20.43062372 35.199636,26.2972904 30.712452,29.6 C24.13622104,34.44031436 17.38022056,39.58430556 17.30636,41.6 C17.22080964,43.934716 18.172584,47.2 24,47.2 Z"/>
    <path fill="#A9A49A" fill-rule="nonzero" d="M20.630618,42.899058 C24.86938832,42.899058 27.689938,41.570578 30.499058,34.099058 C32.37180468,29.11804464 36.63847132,22.38533928 43.299058,13.900942 C37.16572468,18.83301932 31.43239132,25.06120868 26.099058,32.58551 C21.65343132,39.194542 18.320098,42.2323912 16.099058,41.699058 C17.36848732,42.499058 18.87900732,42.899058 20.630618,42.899058 Z" transform="scale(1 -1) rotate(90 58.1 0)"/>
  </g>
</svg>
